<svg width="419" height="314" viewBox="0 0 419 314" fill="none" xmlns="http://www.w3.org/2000/svg">
<rect x="0.5" y="0.5" width="418" height="313" rx="15.5" fill="#040112" stroke="url(#paint0_linear_2247_125)"/>
<path d="M47.5449 224.9C51.6302 223.817 52.7748 207.223 53.0909 199.111C53.1828 196.752 55.2415 194.926 57.5896 195.173L67.2895 196.192L83.5238 200.214C83.9808 200.327 84.4543 200.359 84.9223 200.308L103.12 198.31H129.422L139.424 199.248C140.122 199.313 140.79 199.561 141.363 199.966L142.833 201.008C144.15 201.941 145.898 201.991 147.266 201.136L154.566 196.573C154.833 196.406 155.118 196.271 155.416 196.171L161.599 194.101C162.327 193.857 162.97 193.409 163.45 192.809L173.037 180.845C174.04 179.594 175.692 179.062 177.235 179.493L192.018 183.623C193.194 183.951 194.457 183.724 195.445 183.007L207.986 173.897C208.646 173.418 209.144 172.748 209.413 171.978L224.906 127.527C225.483 125.871 227.071 124.785 228.823 124.846L254.698 125.75C255.277 125.77 255.844 125.916 256.361 126.177L268.801 132.456C269.612 132.866 270.539 132.987 271.429 132.799L283.269 130.301C285.12 129.91 286.444 128.278 286.444 126.387V123.139C286.444 120.621 288.742 118.73 291.212 119.213L299.523 120.841C299.815 120.898 300.112 120.922 300.409 120.913L316.946 120.429C317.425 120.415 317.902 120.487 318.355 120.641L336.304 126.765C337.202 127.072 338.179 127.049 339.062 126.701L350.258 122.29C351.409 121.837 352.705 121.941 353.768 122.573L359.661 126.077C360.538 126.599 361.582 126.765 362.578 126.542L390.005 120.408L400.2 117.6" stroke="white" stroke-width="2"/>
<path d="M154.968 196.322L161.599 194.101C162.327 193.857 162.97 193.409 163.45 192.809L173.037 180.845C174.039 179.594 175.691 179.062 177.235 179.493L192.018 183.623C193.194 183.951 194.457 183.724 195.445 183.007L207.986 173.897C208.646 173.418 209.144 172.748 209.412 171.978L225.876 124.743" stroke="url(#paint1_linear_2247_125)" stroke-width="2"/>
<path d="M225 138C231.075 138 236 133.075 236 127C236 120.925 231.075 116 225 116C218.925 116 214 120.925 214 127C214 133.075 218.925 138 225 138Z" fill="#DF9AFF"/>
<path fill-rule="evenodd" clip-rule="evenodd" d="M219.166 130.797C218.783 131.463 219.085 132 219.84 132H230.16C230.913 132 231.217 131.461 230.835 130.797L225.693 121.499C225.31 120.833 224.69 120.834 224.307 121.499L219.166 130.797ZM224.357 124.667C224.357 124.309 224.646 124.02 225 124.02C225.355 124.02 225.643 124.308 225.643 124.667V127.471C225.643 127.828 225.354 128.118 225 128.118C224.645 128.118 224.357 127.83 224.357 127.471V124.667ZM224.143 129.627C224.143 129.151 224.527 128.765 225 128.765C225.474 128.765 225.857 129.152 225.857 129.627C225.857 130.104 225.472 130.49 225 130.49C224.526 130.49 224.143 130.103 224.143 129.627Z" fill="#040112"/>
<g clip-path="url(#clip0_2247_125)">
<rect opacity="0.2" x="48.2" y="262.6" width="352" height="0.8" fill="#DFE1ED" fill-opacity="0.5"/>
<rect opacity="0.2" x="48.2" y="225" width="352" height="0.8" fill="#DFE1ED" fill-opacity="0.5"/>
<rect opacity="0.2" x="48.2" y="187.4" width="352" height="0.8" fill="#DFE1ED" fill-opacity="0.5"/>
<rect opacity="0.2" x="48.2" y="149.8" width="352" height="0.8" fill="#DFE1ED" fill-opacity="0.5"/>
<rect opacity="0.2" x="48.2" y="112.2" width="352" height="0.8" fill="#DFE1ED" fill-opacity="0.5"/>
<path d="M19.1056 112.04L20.824 109.726H21.6304L19.8256 112.117C20.152 111.954 20.4496 111.886 20.7664 111.886C22.1968 111.886 23.1472 112.933 23.1472 114.277C23.1472 115.688 22.0816 116.715 20.7088 116.715C19.3264 116.715 18.2416 115.65 18.2416 114.277C18.2416 113.48 18.4624 112.923 19.1056 112.04ZM18.9424 114.286C18.9424 115.333 19.6624 116.091 20.7088 116.091C21.7264 116.091 22.456 115.333 22.456 114.286C22.456 113.24 21.7264 112.491 20.7088 112.491C19.6624 112.491 18.9424 113.24 18.9424 114.286ZM24.5924 113.163C24.5924 111.032 25.6388 109.592 27.3476 109.592C29.0468 109.592 30.0932 111.032 30.0932 113.163C30.0932 115.304 29.066 116.725 27.3476 116.725C25.6196 116.725 24.5924 115.304 24.5924 113.163ZM25.274 113.163C25.274 114.949 26.0324 116.101 27.3476 116.101C28.6628 116.101 29.4212 114.949 29.4212 113.163C29.4212 111.368 28.6628 110.226 27.3476 110.226C26.0324 110.226 25.274 111.368 25.274 113.163ZM31.6255 113.163C31.6255 111.032 32.6719 109.592 34.3807 109.592C36.08 109.592 37.1263 111.032 37.1263 113.163C37.1263 115.304 36.0991 116.725 34.3807 116.725C32.6527 116.725 31.6255 115.304 31.6255 113.163ZM32.3071 113.163C32.3071 114.949 33.0655 116.101 34.3807 116.101C35.6959 116.101 36.4543 114.949 36.4543 113.163C36.4543 111.368 35.6959 110.226 34.3807 110.226C33.0655 110.226 32.3071 111.368 32.3071 113.163Z" fill="#B7BAC7"/>
<path d="M29.528 263.563C29.528 261.432 30.5744 259.992 32.2832 259.992C33.9824 259.992 35.0288 261.432 35.0288 263.563C35.0288 265.704 34.0016 267.125 32.2832 267.125C30.5552 267.125 29.528 265.704 29.528 263.563ZM30.2096 263.563C30.2096 265.349 30.968 266.501 32.2832 266.501C33.5984 266.501 34.3568 265.349 34.3568 263.563C34.3568 261.768 33.5984 260.626 32.2832 260.626C30.968 260.626 30.2096 261.768 30.2096 263.563Z" fill="#B7BAC7"/>
<path d="M21.1376 223.15H19.736V222.526H21.8V229.4H21.1376V223.15ZM23.6143 225.963C23.6143 223.832 24.6607 222.392 26.3695 222.392C28.0687 222.392 29.1151 223.832 29.1151 225.963C29.1151 228.104 28.0879 229.525 26.3695 229.525C24.6415 229.525 23.6143 228.104 23.6143 225.963ZM24.2959 225.963C24.2959 227.749 25.0543 228.901 26.3695 228.901C27.6847 228.901 28.4431 227.749 28.4431 225.963C28.4431 224.168 27.6847 223.026 26.3695 223.026C25.0543 223.026 24.2959 224.168 24.2959 225.963ZM30.6474 225.963C30.6474 223.832 31.6938 222.392 33.4026 222.392C35.1018 222.392 36.1482 223.832 36.1482 225.963C36.1482 228.104 35.121 229.525 33.4026 229.525C31.6746 229.525 30.6474 228.104 30.6474 225.963ZM31.329 225.963C31.329 227.749 32.0874 228.901 33.4026 228.901C34.7178 228.901 35.4762 227.749 35.4762 225.963C35.4762 224.168 34.7178 223.026 33.4026 223.026C32.0874 223.026 31.329 224.168 31.329 225.963Z" fill="#B7BAC7"/>
<path d="M22.7632 191.8H18.232V191.253L20.4304 189.333C21.6976 188.229 22.024 187.749 22.024 186.933C22.024 186.002 21.4672 185.435 20.5552 185.435C19.6048 185.435 18.9808 186.126 18.952 187.192H18.2608C18.2992 185.752 19.2112 184.802 20.5648 184.802C21.8608 184.802 22.7248 185.637 22.7248 186.894C22.7248 187.893 22.2736 188.555 20.9008 189.755L19.2976 191.157H22.7632V191.8ZM24.1987 188.363C24.1987 186.232 25.2451 184.792 26.9539 184.792C28.6531 184.792 29.6995 186.232 29.6995 188.363C29.6995 190.504 28.6723 191.925 26.9539 191.925C25.2259 191.925 24.1987 190.504 24.1987 188.363ZM24.8803 188.363C24.8803 190.149 25.6387 191.301 26.9539 191.301C28.2691 191.301 29.0275 190.149 29.0275 188.363C29.0275 186.568 28.2691 185.426 26.9539 185.426C25.6387 185.426 24.8803 186.568 24.8803 188.363ZM31.2318 188.363C31.2318 186.232 32.2782 184.792 33.987 184.792C35.6862 184.792 36.7326 186.232 36.7326 188.363C36.7326 190.504 35.7054 191.925 33.987 191.925C32.259 191.925 31.2318 190.504 31.2318 188.363ZM31.9134 188.363C31.9134 190.149 32.6718 191.301 33.987 191.301C35.3022 191.301 36.0606 190.149 36.0606 188.363C36.0606 186.568 35.3022 185.426 33.987 185.426C32.6718 185.426 31.9134 186.568 31.9134 188.363Z" fill="#B7BAC7"/>
<path d="M22.472 152.741H21.6656V154.2H20.9936V152.741H17.384V152.126L20.744 147.326H21.6656V152.126H22.472V152.741ZM18.1328 152.126H20.9936V148.037L18.1328 152.126ZM24.0268 150.763C24.0268 148.632 25.0732 147.192 26.782 147.192C28.4812 147.192 29.5276 148.632 29.5276 150.763C29.5276 152.904 28.5004 154.325 26.782 154.325C25.054 154.325 24.0268 152.904 24.0268 150.763ZM24.7084 150.763C24.7084 152.549 25.4668 153.701 26.782 153.701C28.0972 153.701 28.8556 152.549 28.8556 150.763C28.8556 148.968 28.0972 147.826 26.782 147.826C25.4668 147.826 24.7084 148.968 24.7084 150.763ZM31.0599 150.763C31.0599 148.632 32.1063 147.192 33.8151 147.192C35.5143 147.192 36.5607 148.632 36.5607 150.763C36.5607 152.904 35.5335 154.325 33.8151 154.325C32.0871 154.325 31.0599 152.904 31.0599 150.763ZM31.7415 150.763C31.7415 152.549 32.4999 153.701 33.8151 153.701C35.1303 153.701 35.8887 152.549 35.8887 150.763C35.8887 148.968 35.1303 147.826 33.8151 147.826C32.4999 147.826 31.7415 148.968 31.7415 150.763Z" fill="#B7BAC7"/>
</g>
<path d="M98.7632 292.6H94.232V292.053L96.4304 290.133C97.6976 289.029 98.024 288.549 98.024 287.733C98.024 286.802 97.4672 286.235 96.5552 286.235C95.6048 286.235 94.9808 286.926 94.952 287.992H94.2608C94.2992 286.552 95.2112 285.602 96.5648 285.602C97.8608 285.602 98.7248 286.437 98.7248 287.694C98.7248 288.693 98.2736 289.355 96.9008 290.555L95.2976 291.957H98.7632V292.6ZM100.976 288.04L102.695 285.726H103.501L101.696 288.117C102.023 287.954 102.32 287.886 102.637 287.886C104.067 287.886 105.018 288.933 105.018 290.277C105.018 291.688 103.952 292.715 102.579 292.715C101.197 292.715 100.112 291.65 100.112 290.277C100.112 289.48 100.333 288.923 100.976 288.04ZM100.813 290.286C100.813 291.333 101.533 292.091 102.579 292.091C103.597 292.091 104.327 291.333 104.327 290.286C104.327 289.24 103.597 288.491 102.579 288.491C101.533 288.491 100.813 289.24 100.813 290.286ZM110.594 292.6H109.913V285.726H110.594L113.1 291.784L115.606 285.726H116.297V292.6H115.615V289.336C115.615 288.136 115.634 287.608 115.673 287.138L113.436 292.6H112.774L110.537 287.166C110.575 287.426 110.594 288.184 110.594 289.23V292.6ZM118.446 292.6H117.745L120.27 285.726H121.124L123.678 292.6H122.958L122.286 290.776H119.118L118.446 292.6ZM120.606 286.696L119.329 290.171H122.065L120.779 286.696C120.75 286.6 120.702 286.485 120.692 286.418C120.683 286.475 120.644 286.6 120.606 286.696ZM125.805 292.6H125.113V285.726H127.677C129.069 285.726 129.913 286.494 129.913 287.714C129.913 288.702 129.395 289.394 128.512 289.634L129.981 292.6H129.213L127.811 289.749H125.805V292.6ZM125.805 286.35V289.125H127.696C128.646 289.125 129.203 288.606 129.203 287.733C129.203 286.84 128.617 286.35 127.677 286.35H125.805ZM139.005 292.6H134.473V292.053L136.672 290.133C137.939 289.029 138.265 288.549 138.265 287.733C138.265 286.802 137.709 286.235 136.797 286.235C135.846 286.235 135.222 286.926 135.193 287.992H134.502C134.541 286.552 135.453 285.602 136.806 285.602C138.102 285.602 138.966 286.437 138.966 287.694C138.966 288.693 138.515 289.355 137.142 290.555L135.539 291.957H139.005V292.6ZM140.44 289.163C140.44 287.032 141.486 285.592 143.195 285.592C144.894 285.592 145.941 287.032 145.941 289.163C145.941 291.304 144.914 292.725 143.195 292.725C141.467 292.725 140.44 291.304 140.44 289.163ZM141.122 289.163C141.122 290.949 141.88 292.101 143.195 292.101C144.51 292.101 145.269 290.949 145.269 289.163C145.269 287.368 144.51 286.226 143.195 286.226C141.88 286.226 141.122 287.368 141.122 289.163ZM148.683 286.35H147.281V285.726H149.345V292.6H148.683V286.35ZM155.115 290.277L153.396 292.6H152.59L154.395 290.2C154.078 290.373 153.78 290.43 153.454 290.43C152.023 290.43 151.073 289.384 151.073 288.04C151.073 286.638 152.139 285.602 153.511 285.602C154.894 285.602 155.979 286.667 155.979 288.05C155.979 288.846 155.767 289.403 155.115 290.277ZM155.287 288.04C155.287 286.994 154.558 286.235 153.511 286.235C152.494 286.235 151.764 286.994 151.764 288.04C151.764 289.077 152.494 289.826 153.511 289.826C154.558 289.826 155.287 289.077 155.287 288.04Z" fill="#B7BAC7"/>
<path d="M207.563 292.6H203.032V292.053L205.23 290.133C206.498 289.029 206.824 288.549 206.824 287.733C206.824 286.802 206.267 286.235 205.355 286.235C204.405 286.235 203.781 286.926 203.752 287.992H203.061C203.099 286.552 204.011 285.602 205.365 285.602C206.661 285.602 207.525 286.437 207.525 287.694C207.525 288.693 207.074 289.355 205.701 290.555L204.098 291.957H207.563V292.6ZM208.482 285.726H213.157V286.36L210.45 292.6H209.74L212.456 286.36H208.482V285.726ZM218.372 292.6H217.691V285.726H218.372L220.878 291.784L223.384 285.726H224.075V292.6H223.393V289.336C223.393 288.136 223.412 287.608 223.451 287.138L221.214 292.6H220.552L218.315 287.166C218.353 287.426 218.372 288.184 218.372 289.23V292.6ZM226.224 292.6H225.523L228.048 285.726H228.902L231.456 292.6H230.736L230.064 290.776H226.896L226.224 292.6ZM228.384 286.696L227.107 290.171H229.843L228.557 286.696C228.528 286.6 228.48 286.485 228.47 286.418C228.461 286.475 228.422 286.6 228.384 286.696ZM233.583 292.6H232.891V285.726H235.455C236.847 285.726 237.691 286.494 237.691 287.714C237.691 288.702 237.173 289.394 236.29 289.634L237.759 292.6H236.991L235.589 289.749H233.583V292.6ZM233.583 286.35V289.125H235.474C236.424 289.125 236.981 288.606 236.981 287.733C236.981 286.84 236.395 286.35 235.455 286.35H233.583ZM246.783 292.6H242.251V292.053L244.45 290.133C245.717 289.029 246.043 288.549 246.043 287.733C246.043 286.802 245.487 286.235 244.575 286.235C243.624 286.235 243 286.926 242.971 287.992H242.28C242.319 286.552 243.231 285.602 244.584 285.602C245.88 285.602 246.744 286.437 246.744 287.694C246.744 288.693 246.293 289.355 244.92 290.555L243.317 291.957H246.783V292.6ZM248.218 289.163C248.218 287.032 249.264 285.592 250.973 285.592C252.672 285.592 253.719 287.032 253.719 289.163C253.719 291.304 252.692 292.725 250.973 292.725C249.245 292.725 248.218 291.304 248.218 289.163ZM248.9 289.163C248.9 290.949 249.658 292.101 250.973 292.101C252.288 292.101 253.047 290.949 253.047 289.163C253.047 287.368 252.288 286.226 250.973 286.226C249.658 286.226 248.9 287.368 248.9 289.163ZM256.461 286.35H255.059V285.726H257.123V292.6H256.461V286.35ZM262.893 290.277L261.174 292.6H260.368L262.173 290.2C261.856 290.373 261.558 290.43 261.232 290.43C259.801 290.43 258.851 289.384 258.851 288.04C258.851 286.638 259.917 285.602 261.289 285.602C262.672 285.602 263.757 286.667 263.757 288.05C263.757 288.846 263.545 289.403 262.893 290.277ZM263.065 288.04C263.065 286.994 262.336 286.235 261.289 286.235C260.272 286.235 259.542 286.994 259.542 288.04C259.542 289.077 260.272 289.826 261.289 289.826C262.336 289.826 263.065 289.077 263.065 288.04Z" fill="#B7BAC7"/>
<path d="M311.563 292.6H307.032V292.053L309.23 290.133C310.498 289.029 310.824 288.549 310.824 287.733C310.824 286.802 310.267 286.235 309.355 286.235C308.405 286.235 307.781 286.926 307.752 287.992H307.061C307.099 286.552 308.011 285.602 309.365 285.602C310.661 285.602 311.525 286.437 311.525 287.694C311.525 288.693 311.074 289.355 309.701 290.555L308.098 291.957H311.563V292.6ZM312.96 290.728C312.96 289.883 313.469 289.211 314.285 288.933C313.594 288.654 313.2 288.088 313.2 287.378C313.2 286.322 314.103 285.602 315.418 285.602C316.723 285.602 317.597 286.322 317.597 287.387C317.597 288.107 317.213 288.674 316.531 288.933C317.328 289.182 317.856 289.874 317.856 290.738C317.856 291.909 316.867 292.715 315.408 292.715C313.949 292.715 312.96 291.909 312.96 290.728ZM313.853 287.397C313.853 288.155 314.467 288.664 315.408 288.664C316.339 288.664 316.944 288.174 316.944 287.416C316.944 286.677 316.339 286.216 315.408 286.216C314.467 286.216 313.853 286.677 313.853 287.397ZM313.642 290.67C313.642 291.525 314.352 292.091 315.418 292.091C316.464 292.091 317.175 291.525 317.175 290.67C317.175 289.826 316.483 289.278 315.399 289.278C314.333 289.278 313.642 289.826 313.642 290.67ZM323.488 292.6H322.806V285.726H323.488L325.994 291.784L328.499 285.726H329.19V292.6H328.509V289.336C328.509 288.136 328.528 287.608 328.566 287.138L326.33 292.6H325.667L323.43 287.166C323.469 287.426 323.488 288.184 323.488 289.23V292.6ZM331.34 292.6H330.639L333.164 285.726H334.018L336.572 292.6H335.852L335.18 290.776H332.012L331.34 292.6ZM333.5 286.696L332.223 290.171H334.959L333.672 286.696C333.644 286.6 333.596 286.485 333.586 286.418C333.576 286.475 333.538 286.6 333.5 286.696ZM338.698 292.6H338.007V285.726H340.57C341.962 285.726 342.807 286.494 342.807 287.714C342.807 288.702 342.289 289.394 341.405 289.634L342.874 292.6H342.106L340.705 289.749H338.698V292.6ZM338.698 286.35V289.125H340.589C341.54 289.125 342.097 288.606 342.097 287.733C342.097 286.84 341.511 286.35 340.57 286.35H338.698ZM351.898 292.6H347.367V292.053L349.565 290.133C350.833 289.029 351.159 288.549 351.159 287.733C351.159 286.802 350.602 286.235 349.69 286.235C348.74 286.235 348.116 286.926 348.087 287.992H347.396C347.434 286.552 348.346 285.602 349.7 285.602C350.996 285.602 351.86 286.437 351.86 287.694C351.86 288.693 351.409 289.355 350.036 290.555L348.433 291.957H351.898V292.6ZM353.334 289.163C353.334 287.032 354.38 285.592 356.089 285.592C357.788 285.592 358.834 287.032 358.834 289.163C358.834 291.304 357.807 292.725 356.089 292.725C354.361 292.725 353.334 291.304 353.334 289.163ZM354.015 289.163C354.015 290.949 354.774 292.101 356.089 292.101C357.404 292.101 358.162 290.949 358.162 289.163C358.162 287.368 357.404 286.226 356.089 286.226C354.774 286.226 354.015 287.368 354.015 289.163ZM361.576 286.35H360.175V285.726H362.239V292.6H361.576V286.35ZM368.008 290.277L366.29 292.6H365.483L367.288 290.2C366.971 290.373 366.674 290.43 366.347 290.43C364.917 290.43 363.967 289.384 363.967 288.04C363.967 286.638 365.032 285.602 366.405 285.602C367.787 285.602 368.872 286.667 368.872 288.05C368.872 288.846 368.661 289.403 368.008 290.277ZM368.181 288.04C368.181 286.994 367.451 286.235 366.405 286.235C365.387 286.235 364.658 286.994 364.658 288.04C364.658 289.077 365.387 289.826 366.405 289.826C367.451 289.826 368.181 289.077 368.181 288.04Z" fill="#B7BAC7"/>
<rect x="12" y="12" width="395" height="68" rx="8" fill="#DF9AFF" fill-opacity="0.05"/>
<path d="M325.013 57.185V55.276C321.816 55.046 319.769 53.183 319.7 50.377H322.644C322.667 51.688 323.518 52.516 325.013 52.7V47.801L324.277 47.64C321.379 47.019 319.93 45.409 319.93 42.879C319.93 40.188 321.954 38.256 325.013 37.934V35.979H326.784V37.934C329.682 38.233 331.476 40.05 331.568 42.81H328.716C328.67 41.568 327.98 40.763 326.784 40.51V45.455L327.566 45.639C330.51 46.283 331.844 47.709 331.844 50.147C331.844 52.953 329.866 54.885 326.784 55.23V57.185H325.013ZM324.921 45.041L325.013 45.064V40.487C323.633 40.717 322.805 41.545 322.805 42.787C322.805 44.006 323.449 44.719 324.921 45.041ZM326.945 48.215L326.784 48.169V52.654C328.164 52.378 328.992 51.573 328.992 50.4C328.992 49.227 328.325 48.514 326.945 48.215ZM337.507 40.832H333.827V38.187H340.336V55H337.507V40.832ZM342.972 38.187H355.047V40.901L348.952 55H345.893L352.103 40.901H342.972V38.187ZM356.541 55.276C355.529 55.276 354.678 54.448 354.678 53.459C354.678 52.447 355.529 51.619 356.541 51.619C357.553 51.619 358.404 52.447 358.404 53.459C358.404 54.448 357.553 55.276 356.541 55.276ZM362.984 43.132L366.618 38.187H369.976L365.951 43.546C366.365 43.431 366.802 43.362 367.216 43.362C370.689 43.362 373.035 45.8 373.035 49.204C373.035 52.792 370.367 55.299 366.779 55.299C363.145 55.299 360.431 52.631 360.431 49.181C360.431 47.157 361.098 45.685 362.984 43.132ZM363.444 49.204C363.444 51.251 364.801 52.677 366.779 52.677C368.688 52.677 370.068 51.251 370.068 49.204C370.068 47.18 368.711 45.777 366.779 45.777C364.778 45.777 363.444 47.18 363.444 49.204ZM375.232 50.239C375.232 48.238 376.359 46.628 378.107 45.961C376.635 45.294 375.83 44.029 375.83 42.396C375.83 39.728 378.199 37.888 381.672 37.888C385.122 37.888 387.445 39.705 387.445 42.442C387.445 44.075 386.617 45.34 385.122 45.961C386.893 46.582 388.043 48.215 388.043 50.239C388.043 53.275 385.536 55.276 381.626 55.276C377.739 55.276 375.232 53.298 375.232 50.239ZM378.498 42.649C378.498 44.052 379.717 44.949 381.626 44.949C383.512 44.949 384.708 44.075 384.708 42.672C384.708 41.269 383.512 40.395 381.626 40.395C379.717 40.395 378.498 41.269 378.498 42.649ZM378.107 50.032C378.107 51.665 379.464 52.677 381.649 52.677C383.788 52.677 385.145 51.665 385.145 50.032C385.145 48.399 383.788 47.387 381.626 47.387C379.464 47.387 378.107 48.399 378.107 50.032Z" fill="white"/>
<path d="M84.02 43.216C80.186 43.216 77.702 40.552 77.702 36.43C77.702 32.344 80.276 29.626 84.128 29.626C87.242 29.626 89.564 31.444 90.014 34.27H87.584C87.134 32.74 85.82 31.84 84.074 31.84C81.644 31.84 80.114 33.604 80.114 36.412C80.114 39.202 81.662 41.002 84.074 41.002C85.856 41.002 87.224 40.066 87.656 38.608H90.05C89.546 41.38 87.134 43.216 84.02 43.216ZM92.0702 38.536C92.0702 35.764 94.0682 33.856 96.8222 33.856C99.5762 33.856 101.574 35.764 101.574 38.536C101.574 41.308 99.5762 43.216 96.8222 43.216C94.0682 43.216 92.0702 41.308 92.0702 38.536ZM94.2662 38.536C94.2662 40.156 95.3102 41.254 96.8222 41.254C98.3342 41.254 99.3782 40.156 99.3782 38.536C99.3782 36.916 98.3342 35.818 96.8222 35.818C95.3102 35.818 94.2662 36.916 94.2662 38.536ZM103.431 40.3H105.519C105.537 41.074 106.113 41.56 107.121 41.56C108.147 41.56 108.705 41.146 108.705 40.498C108.705 40.048 108.471 39.724 107.679 39.544L106.077 39.166C104.475 38.806 103.701 38.05 103.701 36.628C103.701 34.882 105.177 33.838 107.229 33.838C109.227 33.838 110.577 34.99 110.595 36.718H108.507C108.489 35.962 107.985 35.476 107.139 35.476C106.275 35.476 105.771 35.872 105.771 36.538C105.771 37.042 106.167 37.366 106.923 37.546L108.525 37.924C110.019 38.266 110.775 38.95 110.775 40.318C110.775 42.118 109.245 43.234 107.049 43.234C104.835 43.234 103.431 42.046 103.431 40.3ZM116.271 43H114.075V35.944H112.365V34.108H114.075V31.336H116.271V34.108H117.999V35.944H116.271V43ZM119.795 39.166V37.222H125.591V39.166H119.795ZM128.628 47.122V34.108H130.662L130.806 35.458C131.346 34.432 132.516 33.838 133.866 33.838C136.368 33.838 138.024 35.656 138.024 38.446C138.024 41.218 136.512 43.234 133.866 43.234C132.534 43.234 131.382 42.712 130.824 41.812V47.122H128.628ZM130.842 38.554C130.842 40.156 131.832 41.254 133.344 41.254C134.892 41.254 135.81 40.138 135.81 38.554C135.81 36.97 134.892 35.836 133.344 35.836C131.832 35.836 130.842 36.952 130.842 38.554ZM144.551 43.234C141.905 43.234 140.051 41.308 140.051 38.554C140.051 35.764 141.869 33.838 144.479 33.838C147.143 33.838 148.835 35.62 148.835 38.392V39.058L142.139 39.076C142.301 40.642 143.129 41.434 144.587 41.434C145.793 41.434 146.585 40.966 146.837 40.12H148.871C148.493 42.064 146.873 43.234 144.551 43.234ZM144.497 35.638C143.201 35.638 142.409 36.34 142.193 37.672H146.657C146.657 36.448 145.811 35.638 144.497 35.638ZM156.972 34.072V36.106H156.162C154.578 36.106 153.588 36.952 153.588 38.68V43H151.392V34.126H153.462L153.588 35.422C153.966 34.54 154.812 33.946 156 33.946C156.306 33.946 156.612 33.982 156.972 34.072ZM158.59 39.166V37.222H164.386V39.166H158.59ZM166.902 38.536C166.902 35.782 168.72 33.838 171.348 33.838C173.778 33.838 175.434 35.188 175.668 37.33H173.472C173.22 36.322 172.482 35.8 171.438 35.8C170.034 35.8 169.098 36.862 169.098 38.536C169.098 40.21 169.962 41.254 171.366 41.254C172.464 41.254 173.238 40.714 173.472 39.742H175.686C175.416 41.812 173.688 43.234 171.366 43.234C168.666 43.234 166.902 41.362 166.902 38.536ZM180.334 43H178.156V29.608H180.334V43ZM184.536 32.326C183.78 32.326 183.186 31.732 183.186 30.994C183.186 30.256 183.78 29.68 184.536 29.68C185.256 29.68 185.85 30.256 185.85 30.994C185.85 31.732 185.256 32.326 184.536 32.326ZM183.438 43V34.108H185.634V43H183.438ZM188.181 38.536C188.181 35.782 189.999 33.838 192.627 33.838C195.057 33.838 196.713 35.188 196.947 37.33H194.751C194.499 36.322 193.761 35.8 192.717 35.8C191.313 35.8 190.377 36.862 190.377 38.536C190.377 40.21 191.241 41.254 192.645 41.254C193.743 41.254 194.517 40.714 194.751 39.742H196.965C196.695 41.812 194.967 43.234 192.645 43.234C189.945 43.234 188.181 41.362 188.181 38.536ZM201.613 43H199.435V29.608H201.613V37.834L205.069 34.108H207.823L204.439 37.636L207.751 43H205.231L202.909 39.256L201.613 40.606V43Z" fill="white"/>
<path opacity="0.6" d="M78.596 64H77.168L80.864 53.878H82.39L86.1 64H84.658L83.748 61.48H79.492L78.596 64ZM81.452 56.062L79.912 60.29H83.342L81.788 56.062C81.718 55.866 81.648 55.628 81.62 55.474C81.592 55.614 81.522 55.852 81.452 56.062ZM89.1375 64H87.8215V57.154H89.0115L89.1515 58.204C89.5855 57.42 90.4535 56.958 91.4195 56.958C93.2255 56.958 94.0515 58.064 94.0515 59.814V64H92.7355V60.108C92.7355 58.722 92.0915 58.162 91.0835 58.162C89.8515 58.162 89.1375 59.044 89.1375 60.374V64ZM98.4763 64.168C97.0063 64.168 96.1383 63.342 96.1383 62.096C96.1383 60.836 97.0763 60.052 98.6863 59.926L100.842 59.758V59.562C100.842 58.414 100.156 58.008 99.2323 58.008C98.1263 58.008 97.4963 58.498 97.4963 59.324H96.3483C96.3483 57.896 97.5243 56.958 99.2883 56.958C100.982 56.958 102.13 57.854 102.13 59.702V64H101.01L100.87 62.894C100.52 63.678 99.5823 64.168 98.4763 64.168ZM98.8543 63.146C100.1 63.146 100.856 62.334 100.856 61.046V60.682L99.1063 60.822C97.9443 60.934 97.4683 61.382 97.4683 62.054C97.4683 62.782 98.0003 63.146 98.8543 63.146ZM105.897 64H104.581V53.696H105.897V64ZM107.776 67.066V65.988H108.658C109.288 65.988 109.792 65.89 110.114 65.022L110.352 64.364L107.594 57.154H108.98L110.968 62.67L112.998 57.154H114.356L111.122 65.54C110.66 66.716 109.974 67.206 108.924 67.206C108.49 67.206 108.126 67.15 107.776 67.066ZM117.939 64H116.623V58.26H115.279V57.154H116.623V55.012H117.939V57.154H119.283V58.26H117.939V64ZM121.708 55.53C121.232 55.53 120.84 55.138 120.84 54.662C120.84 54.172 121.232 53.794 121.708 53.794C122.184 53.794 122.576 54.172 122.576 54.662C122.576 55.138 122.184 55.53 121.708 55.53ZM121.064 64V57.154H122.38V64H121.064ZM124.442 60.584C124.442 58.442 125.8 56.958 127.802 56.958C129.524 56.958 130.728 57.938 130.966 59.464H129.65C129.426 58.596 128.726 58.134 127.844 58.134C126.598 58.134 125.744 59.086 125.744 60.57C125.744 62.04 126.542 62.992 127.788 62.992C128.726 62.992 129.426 62.502 129.664 61.69H130.98C130.714 63.174 129.44 64.168 127.788 64.168C125.772 64.168 124.442 62.74 124.442 60.584ZM132.409 62.012H133.669C133.669 62.712 134.201 63.132 135.069 63.132C135.993 63.132 136.525 62.754 136.525 62.124C136.525 61.662 136.301 61.382 135.587 61.2L134.383 60.92C133.165 60.626 132.591 60.024 132.591 59.016C132.591 57.756 133.655 56.958 135.167 56.958C136.665 56.958 137.645 57.798 137.673 59.1H136.413C136.385 58.414 135.923 57.98 135.125 57.98C134.299 57.98 133.837 58.344 133.837 58.974C133.837 59.436 134.173 59.744 134.845 59.912L136.049 60.206C137.211 60.486 137.785 61.018 137.785 62.04C137.785 63.342 136.665 64.168 135.041 64.168C133.431 64.168 132.409 63.314 132.409 62.012Z" fill="#B7BAC7"/>
<path d="M57.2392 30H51.4458C50.0444 30 48.8941 31.1579 48.8941 32.5684V40.1053H40.5072C39.1477 40.1053 38.0392 41.2211 38.0392 42.6105V51.0526H30.4889C29.1085 51.0526 28 52.1684 28 53.5579V59.4526C28 60.8421 29.1085 61.9579 30.4889 62H57.2601C58.6614 62 59.8118 60.8421 59.8118 59.4316V32.5684C59.7908 31.1579 58.6405 30 57.2392 30Z" fill="url(#paint2_linear_2247_125)"/>
<path d="M57.2392 30H51.4458C50.0444 30 48.8941 31.1579 48.8941 32.5684V40.1053H40.5072C39.1477 40.1053 38.0392 41.2211 38.0392 42.6105V51.0526H30.4889C29.1085 51.0526 28 52.1684 28 53.5579V59.4526C28 60.8421 29.1085 61.9579 30.4889 62H57.2601C58.6614 62 59.8118 60.8421 59.8118 59.4316V32.5684C59.7908 31.1579 58.6405 30 57.2392 30Z" fill="url(#paint3_linear_2247_125)"/>
<path d="M57.2392 30H51.4875C50.0862 30 48.9359 31.1579 48.9359 32.5684V62H57.2392C58.6405 62 59.7908 60.8421 59.7908 59.4316V32.5684C59.7908 31.1579 58.6405 30 57.2392 30Z" fill="#DF9AFF"/>
<path d="M38.0392 42.6316V51.0526H30.5098C29.1294 51.0526 28 52.1895 28 53.5789V59.4737C28 60.8632 29.1294 62 30.5098 62H48.915V40.1053H40.549C39.1686 40.1053 38.0392 41.2421 38.0392 42.6316Z" fill="#6825F5"/>
<path d="M48.915 40.1053V62H57.2183C58.6196 62 59.7699 60.8421 59.7699 59.4316V51.0526L48.915 40.1053Z" fill="url(#paint4_linear_2247_125)"/>
<path opacity="0.2" d="M40.549 40.3158H48.915V40.1053H40.549C39.1686 40.1053 38.0392 41.2421 38.0392 42.6316V42.8421C38.0392 41.4526 39.1686 40.3158 40.549 40.3158Z" fill="white"/>
<path opacity="0.2" d="M30.5098 51.2632H38.0392V51.0526H30.5098C29.1294 51.0526 28 52.1895 28 53.579V53.7895C28 52.4 29.1294 51.2632 30.5098 51.2632Z" fill="white"/>
<path opacity="0.2" d="M57.2392 30H51.4875C50.0862 30 48.9359 31.1579 48.9359 32.5684V32.7789C48.9359 31.3684 50.0862 30.2105 51.4875 30.2105H57.2392C58.6405 30.2105 59.7908 31.3684 59.7908 32.7789V32.5684C59.7908 31.1579 58.6405 30 57.2392 30Z" fill="white"/>
<path opacity="0.2" d="M57.2392 61.7895H30.5098C29.1294 61.7895 28 60.6526 28 59.2631V59.4737C28 60.8631 29.1294 62 30.5098 62H57.2183C58.6196 62 59.7699 60.8421 59.7699 59.4316V59.221C59.7908 60.6316 58.6405 61.7895 57.2392 61.7895Z" fill="#BF360C"/>
<path d="M57.2392 30H51.4876C50.0863 30 48.9359 31.1579 48.9359 32.5684V40.1053H40.5699C39.1895 40.1053 38.0601 41.2421 38.0601 42.6316V51.0526H30.5098C29.1294 51.0526 28 52.1895 28 53.5789V59.4737C28 60.8632 29.1294 62 30.5098 62H57.2392C58.6405 62 59.7908 60.8421 59.7908 59.4316V32.5684C59.7908 31.1579 58.6405 30 57.2392 30Z" fill="url(#paint5_linear_2247_125)"/>
<defs>
<linearGradient id="paint0_linear_2247_125" x1="419" y1="-1.16856e-05" x2="328.473" y2="345.2" gradientUnits="userSpaceOnUse">
<stop stop-color="#DF9AFF" stop-opacity="0.3"/>
<stop offset="1" stop-color="#DF9AFF" stop-opacity="0.1"/>
</linearGradient>
<linearGradient id="paint1_linear_2247_125" x1="155.15" y1="196.501" x2="226.768" y2="196.501" gradientUnits="userSpaceOnUse">
<stop stop-color="white"/>
<stop offset="1" stop-color="#DF9AFF"/>
</linearGradient>
<linearGradient id="paint2_linear_2247_125" x1="28" y1="62" x2="59.8118" y2="62" gradientUnits="userSpaceOnUse">
<stop stop-color="white" stop-opacity="0.1"/>
<stop offset="1" stop-color="white" stop-opacity="0.01"/>
</linearGradient>
<linearGradient id="paint3_linear_2247_125" x1="28" y1="62" x2="59.8118" y2="62" gradientUnits="userSpaceOnUse">
<stop stop-color="white" stop-opacity="0.1"/>
<stop offset="1" stop-color="white" stop-opacity="0.01"/>
</linearGradient>
<linearGradient id="paint4_linear_2247_125" x1="39.6618" y1="61.2637" x2="57.9054" y2="65.7774" gradientUnits="userSpaceOnUse">
<stop stop-color="#BF360C" stop-opacity="0.2"/>
<stop offset="1" stop-color="#BF360C" stop-opacity="0.02"/>
</linearGradient>
<linearGradient id="paint5_linear_2247_125" x1="28.3777" y1="51.0935" x2="49.0775" y2="71.6579" gradientUnits="userSpaceOnUse">
<stop stop-color="white" stop-opacity="0.1"/>
<stop offset="1" stop-color="white" stop-opacity="0.01"/>
</linearGradient>
<clipPath id="clip0_2247_125">
<rect width="384" height="162" fill="white" transform="translate(17 106)"/>
</clipPath>
</defs>
</svg>
