<svg width="419" height="314" viewBox="0 0 419 314" fill="none" xmlns="http://www.w3.org/2000/svg">
<g filter="url(#filter0_b_2247_299)">
<rect width="419" height="314" rx="16" fill="#040112"/>
<rect x="0.5" y="0.5" width="418" height="313" rx="15.5" stroke="url(#paint0_linear_2247_299)"/>
</g>
<rect x="12" y="12" width="395" height="68" rx="8" fill="#DF9AFF" fill-opacity="0.05"/>
<rect opacity="0.2" x="48.2001" y="116" width="352" height="1" fill="#DFE1ED" fill-opacity="0.5"/>
<rect opacity="0.2" x="48.2001" y="152" width="352" height="1" fill="#DFE1ED" fill-opacity="0.5"/>
<rect opacity="0.2" x="48.2001" y="188" width="352" height="1" fill="#DFE1ED" fill-opacity="0.5"/>
<rect opacity="0.2" x="224" y="260" width="143" height="1.00001" transform="rotate(-90 224 260)" fill="#DFE1ED" fill-opacity="0.5"/>
<rect opacity="0.2" x="48.2001" y="224" width="352" height="1" fill="#DFE1ED" fill-opacity="0.5"/>
<rect opacity="0.2" x="48.2001" y="260" width="352" height="1" fill="#DFE1ED" fill-opacity="0.5"/>
<path d="M19.2547 112.04C18.6115 112.923 18.3907 113.48 18.3907 114.277C18.3907 115.65 19.4755 116.715 20.8579 116.715C22.2307 116.715 23.2963 115.688 23.2963 114.277C23.2963 112.933 22.3459 111.886 20.9155 111.886C20.5987 111.886 20.3011 111.954 19.9747 112.117L21.7795 109.726H20.9731L19.2547 112.04ZM19.0915 114.286C19.0915 113.24 19.8115 112.491 20.8579 112.491C21.8755 112.491 22.6051 113.24 22.6051 114.286C22.6051 115.333 21.8755 116.091 20.8579 116.091C19.8115 116.091 19.0915 115.333 19.0915 114.286ZM24.7414 113.163C24.7414 115.304 25.7686 116.725 27.4966 116.725C29.215 116.725 30.2422 115.304 30.2422 113.163C30.2422 111.032 29.1958 109.592 27.4966 109.592C25.7878 109.592 24.7414 111.032 24.7414 113.163ZM25.423 113.163C25.423 111.368 26.1814 110.226 27.4966 110.226C28.8118 110.226 29.5702 111.368 29.5702 113.163C29.5702 114.949 28.8118 116.101 27.4966 116.101C26.1814 116.101 25.423 114.949 25.423 113.163ZM31.7746 113.163C31.7746 115.304 32.8018 116.725 34.5298 116.725C36.2482 116.725 37.2754 115.304 37.2754 113.163C37.2754 111.032 36.229 109.592 34.5298 109.592C32.821 109.592 31.7746 111.032 31.7746 113.163ZM32.4562 113.163C32.4562 111.368 33.2146 110.226 34.5298 110.226C35.845 110.226 36.6034 111.368 36.6034 113.163C36.6034 114.949 35.845 116.101 34.5298 116.101C33.2146 116.101 32.4562 114.949 32.4562 113.163Z" fill="#B7BAC7"/>
<path d="M29.9749 257.163C29.9749 259.304 31.0021 260.725 32.7301 260.725C34.4485 260.725 35.4757 259.304 35.4757 257.163C35.4757 255.032 34.4293 253.592 32.7301 253.592C31.0213 253.592 29.9749 255.032 29.9749 257.163ZM30.6565 257.163C30.6565 255.368 31.4149 254.226 32.7301 254.226C34.0453 254.226 34.8037 255.368 34.8037 257.163C34.8037 258.949 34.0453 260.101 32.7301 260.101C31.4149 260.101 30.6565 258.949 30.6565 257.163Z" fill="#B7BAC7"/>
<path d="M21.8649 218.35V224.6H22.5273V217.726H20.4633V218.35H21.8649ZM24.3415 221.163C24.3415 223.304 25.3687 224.725 27.0967 224.725C28.8151 224.725 29.8423 223.304 29.8423 221.163C29.8423 219.032 28.7959 217.592 27.0967 217.592C25.3879 217.592 24.3415 219.032 24.3415 221.163ZM25.0231 221.163C25.0231 219.368 25.7815 218.226 27.0967 218.226C28.4119 218.226 29.1703 219.368 29.1703 221.163C29.1703 222.949 28.4119 224.101 27.0967 224.101C25.7815 224.101 25.0231 222.949 25.0231 221.163ZM31.3747 221.163C31.3747 223.304 32.4019 224.725 34.1299 224.725C35.8483 224.725 36.8755 223.304 36.8755 221.163C36.8755 219.032 35.8291 217.592 34.1299 217.592C32.4211 217.592 31.3747 219.032 31.3747 221.163ZM32.0563 221.163C32.0563 219.368 32.8147 218.226 34.1299 218.226C35.4451 218.226 36.2035 219.368 36.2035 221.163C36.2035 222.949 35.4451 224.101 34.1299 224.101C32.8147 224.101 32.0563 222.949 32.0563 221.163Z" fill="#B7BAC7"/>
<path d="M23.306 188.6V187.957H19.8404L21.4436 186.555C22.8164 185.355 23.2676 184.693 23.2676 183.694C23.2676 182.437 22.4036 181.602 21.1076 181.602C19.754 181.602 18.842 182.552 18.8036 183.992H19.4948C19.5236 182.926 20.1476 182.235 21.098 182.235C22.01 182.235 22.5668 182.802 22.5668 183.733C22.5668 184.549 22.2404 185.029 20.9732 186.133L18.7748 188.053V188.6H23.306ZM24.7414 185.163C24.7414 187.304 25.7686 188.725 27.4966 188.725C29.215 188.725 30.2422 187.304 30.2422 185.163C30.2422 183.032 29.1958 181.592 27.4966 181.592C25.7878 181.592 24.7414 183.032 24.7414 185.163ZM25.423 185.163C25.423 183.368 26.1814 182.226 27.4966 182.226C28.8118 182.226 29.5702 183.368 29.5702 185.163C29.5702 186.949 28.8118 188.101 27.4966 188.101C26.1814 188.101 25.423 186.949 25.423 185.163ZM31.7746 185.163C31.7746 187.304 32.8018 188.725 34.5298 188.725C36.2482 188.725 37.2754 187.304 37.2754 185.163C37.2754 183.032 36.229 181.592 34.5298 181.592C32.821 181.592 31.7746 183.032 31.7746 185.163ZM32.4562 185.163C32.4562 183.368 33.2146 182.226 34.5298 182.226C35.845 182.226 36.6034 183.368 36.6034 185.163C36.6034 186.949 35.845 188.101 34.5298 188.101C33.2146 188.101 32.4562 186.949 32.4562 185.163Z" fill="#B7BAC7"/>
<path d="M23.387 151.141V150.526H22.5806V145.726H21.659L18.299 150.526V151.141H21.9086V152.6H22.5806V151.141H23.387ZM19.0478 150.526L21.9086 146.437V150.526H19.0478ZM24.9417 149.163C24.9417 151.304 25.9689 152.725 27.6969 152.725C29.4153 152.725 30.4425 151.304 30.4425 149.163C30.4425 147.032 29.3961 145.592 27.6969 145.592C25.9881 145.592 24.9417 147.032 24.9417 149.163ZM25.6233 149.163C25.6233 147.368 26.3817 146.226 27.6969 146.226C29.0121 146.226 29.7705 147.368 29.7705 149.163C29.7705 150.949 29.0121 152.101 27.6969 152.101C26.3817 152.101 25.6233 150.949 25.6233 149.163ZM31.9749 149.163C31.9749 151.304 33.0021 152.725 34.7301 152.725C36.4485 152.725 37.4757 151.304 37.4757 149.163C37.4757 147.032 36.4293 145.592 34.7301 145.592C33.0213 145.592 31.9749 147.032 31.9749 149.163ZM32.6565 149.163C32.6565 147.368 33.4149 146.226 34.7301 146.226C36.0453 146.226 36.8037 147.368 36.8037 149.163C36.8037 150.949 36.0453 152.101 34.7301 152.101C33.4149 152.101 32.6565 150.949 32.6565 149.163Z" fill="#B7BAC7"/>
<path d="M49 251L66.8042 221.866C68.5144 219.068 72.3648 218.549 74.7549 220.795V220.795C76.6912 222.614 79.6913 222.669 81.6933 220.923L83.2299 219.582C85.0596 217.985 87.6307 217.551 89.8832 218.458V218.458C92.4888 219.508 95.4739 218.751 97.2651 216.587L99.8137 213.508C101.331 211.675 103.777 210.896 106.075 211.512V211.512C108.623 212.197 111.321 211.16 112.756 208.946L114.494 206.262C116.326 203.434 120.465 203.434 122.297 206.262L122.825 207.078C124.476 209.626 128.238 209.524 129.748 206.89V206.89C131.526 203.787 136.157 204.337 137.16 207.769L142.225 225.106C142.429 225.805 142.741 226.467 143.148 227.069L147.357 233.283C149.115 235.878 152.679 236.489 155.201 234.627L155.863 234.139C157.49 232.938 159.723 232.985 161.298 234.253V234.253C163.817 236.282 167.589 235.033 168.399 231.902L174.216 209.431C174.543 208.169 175.216 207.023 176.159 206.123L180.039 202.417C180.674 201.811 181.417 201.33 182.23 200.998L188.104 198.603C189.834 197.897 191.211 196.529 191.927 194.803L195.499 186.189C196.958 182.672 201.718 182.137 203.921 185.242V185.242C205.536 187.518 208.735 187.962 210.908 186.212L211.653 185.612C213.611 184.034 216.368 183.915 218.456 185.316L219.723 186.166C221.651 187.46 224.208 187.299 225.957 185.772V185.772C228.513 183.543 232.509 184.402 233.978 187.458V187.458C235.937 191.534 241.83 191.444 243.559 187.266L244.345 185.365C245.648 182.219 249.769 181.475 252.089 183.967V183.967C253.809 185.814 256.685 185.963 258.586 184.303L260.956 182.236C262.359 181.012 264.305 180.624 266.07 181.216V181.216C268.901 182.166 271.954 180.562 272.776 177.691L277.469 161.314C278.311 158.376 281.963 157.37 284.19 159.463V159.463C285.906 161.076 288.643 160.888 290.145 159.073V159.073C292.313 156.454 296.566 157.381 297.388 160.68L300.872 174.657C301.867 178.65 307.119 179.582 309.427 176.175L309.556 175.983C310.698 174.298 312.835 173.6 314.752 174.285V174.285C317.289 175.194 320.046 173.661 320.614 171.027L325.721 147.336C326.388 144.243 330.501 143.568 332.121 146.287V146.287C333.581 148.736 337.204 148.491 338.32 145.868L341.042 139.476C342.211 136.729 345.919 136.286 347.702 138.68V138.68C349.485 141.074 353.193 140.631 354.362 137.884L356.418 133.057C357.828 129.743 362.387 129.394 364.286 132.453V132.453C365.963 135.154 369.85 135.274 371.69 132.681L375.382 127.478C375.701 127.027 376.073 126.617 376.489 126.254L379.999 123.191C382.159 121.306 385.438 121.525 387.328 123.682V123.682C389.63 126.308 393.814 125.964 395.656 122.997L400 116" stroke="url(#paint1_linear_2247_299)"/>
<rect x="224" y="165" width="5.65685" height="5.65685" transform="rotate(45 224 165)" fill="#DF9AFF"/>
<rect x="192" y="139" width="64" height="30" rx="3" fill="#DF9AFF"/>
<path d="M205.12 160.14V159.144C203.452 159.024 202.384 158.052 202.348 156.588H203.884C203.896 157.272 204.34 157.704 205.12 157.8V155.244L204.736 155.16C203.224 154.836 202.468 153.996 202.468 152.676C202.468 151.272 203.524 150.264 205.12 150.096V149.076H206.044V150.096C207.556 150.252 208.492 151.2 208.54 152.64H207.052C207.028 151.992 206.668 151.572 206.044 151.44V154.02L206.452 154.116C207.988 154.452 208.684 155.196 208.684 156.468C208.684 157.932 207.652 158.94 206.044 159.12V160.14H205.12ZM205.072 153.804L205.12 153.816V151.428C204.4 151.548 203.968 151.98 203.968 152.628C203.968 153.264 204.304 153.636 205.072 153.804ZM206.128 155.46L206.044 155.436V157.776C206.764 157.632 207.196 157.212 207.196 156.6C207.196 155.988 206.848 155.616 206.128 155.46ZM215.738 158.988L209.654 159V157.848L212.522 155.424C213.71 154.416 214.106 153.84 214.106 153C214.106 152.004 213.566 151.44 212.642 151.44C211.682 151.44 211.082 152.112 211.07 153.24H209.546C209.558 151.32 210.782 150.072 212.642 150.072C214.514 150.072 215.678 151.14 215.678 152.916C215.678 154.14 215.006 155.064 213.674 156.204L212.09 157.56H215.738V158.988ZM218.578 151.608H216.658V150.228H220.054V159H218.578V151.608ZM221.547 154.632C221.547 151.908 223.011 150.06 225.255 150.06C227.499 150.06 228.975 151.908 228.975 154.632C228.975 157.344 227.583 159.156 225.255 159.156C222.927 159.156 221.547 157.344 221.547 154.632ZM223.059 154.632C223.059 156.66 223.875 157.8 225.255 157.8C226.647 157.8 227.463 156.66 227.463 154.632C227.463 152.556 226.647 151.416 225.255 151.416C223.875 151.416 223.059 152.556 223.059 154.632ZM230.799 159.144C230.271 159.144 229.827 158.712 229.827 158.196C229.827 157.668 230.271 157.236 230.799 157.236C231.327 157.236 231.771 157.668 231.771 158.196C231.771 158.712 231.327 159.144 230.799 159.144ZM233.951 152.808L235.848 150.228H237.6L235.5 153.024C235.715 152.964 235.944 152.928 236.16 152.928C237.972 152.928 239.196 154.2 239.196 155.976C239.196 157.848 237.804 159.156 235.932 159.156C234.036 159.156 232.62 157.764 232.62 155.964C232.62 154.908 232.968 154.14 233.951 152.808ZM234.192 155.976C234.192 157.044 234.9 157.788 235.932 157.788C236.928 157.788 237.648 157.044 237.648 155.976C237.648 154.92 236.94 154.188 235.932 154.188C234.888 154.188 234.192 154.92 234.192 155.976ZM239.08 150.228H245.38V151.644L242.2 159H240.604L243.844 151.644H239.08V150.228Z" fill="#040112"/>
<path d="M85.02 43.216C81.186 43.216 78.702 40.552 78.702 36.43C78.702 32.344 81.276 29.626 85.128 29.626C88.242 29.626 90.564 31.444 91.014 34.27H88.584C88.134 32.74 86.82 31.84 85.074 31.84C82.644 31.84 81.114 33.604 81.114 36.412C81.114 39.202 82.662 41.002 85.074 41.002C86.856 41.002 88.224 40.066 88.656 38.608H91.05C90.546 41.38 88.134 43.216 85.02 43.216ZM92.2702 38.536C92.2702 35.764 94.2682 33.856 97.0222 33.856C99.7762 33.856 101.774 35.764 101.774 38.536C101.774 41.308 99.7762 43.216 97.0222 43.216C94.2682 43.216 92.2702 41.308 92.2702 38.536ZM94.4662 38.536C94.4662 40.156 95.5102 41.254 97.0222 41.254C98.5342 41.254 99.5782 40.156 99.5782 38.536C99.5782 36.916 98.5342 35.818 97.0222 35.818C95.5102 35.818 94.4662 36.916 94.4662 38.536ZM102.831 40.3H104.919C104.937 41.074 105.513 41.56 106.521 41.56C107.547 41.56 108.105 41.146 108.105 40.498C108.105 40.048 107.871 39.724 107.079 39.544L105.477 39.166C103.875 38.806 103.101 38.05 103.101 36.628C103.101 34.882 104.577 33.838 106.629 33.838C108.627 33.838 109.977 34.99 109.995 36.718H107.907C107.889 35.962 107.385 35.476 106.539 35.476C105.675 35.476 105.171 35.872 105.171 36.538C105.171 37.042 105.567 37.366 106.323 37.546L107.925 37.924C109.419 38.266 110.175 38.95 110.175 40.318C110.175 42.118 108.645 43.234 106.449 43.234C104.235 43.234 102.831 42.046 102.831 40.3ZM114.043 43H111.847V34.108H113.863L114.043 35.152C114.493 34.414 115.393 33.838 116.671 33.838C118.021 33.838 118.957 34.504 119.425 35.53C119.875 34.504 120.919 33.838 122.269 33.838C124.429 33.838 125.617 35.134 125.617 37.186V43H123.439V37.762C123.439 36.484 122.755 35.818 121.711 35.818C120.649 35.818 119.839 36.502 119.839 37.96V43H117.643V37.744C117.643 36.502 116.977 35.836 115.933 35.836C114.889 35.836 114.043 36.52 114.043 37.96V43ZM127.251 38.536C127.251 35.764 129.249 33.856 132.003 33.856C134.757 33.856 136.755 35.764 136.755 38.536C136.755 41.308 134.757 43.216 132.003 43.216C129.249 43.216 127.251 41.308 127.251 38.536ZM129.447 38.536C129.447 40.156 130.491 41.254 132.003 41.254C133.515 41.254 134.559 40.156 134.559 38.536C134.559 36.916 133.515 35.818 132.003 35.818C130.491 35.818 129.447 36.916 129.447 38.536Z" fill="white"/>
<path fill-rule="evenodd" clip-rule="evenodd" d="M66 34C66 38.4183 62.4183 42 58 42C53.5817 42 50 38.4183 50 34C50 29.5817 53.5817 26 58 26C62.4183 26 66 29.5817 66 34ZM53.4286 52.2857C53.4286 59.8599 47.2885 66 39.7143 66C32.1401 66 26 59.8599 26 52.2857C26 44.7115 32.1401 38.5714 39.7143 38.5714C47.2885 38.5714 53.4286 44.7115 53.4286 52.2857ZM61.4284 55.1429C63.9531 55.1429 65.9998 53.0962 65.9998 50.5714C65.9998 48.0467 63.9531 46 61.4284 46C58.9036 46 56.8569 48.0467 56.8569 50.5714C56.8569 53.0962 58.9036 55.1429 61.4284 55.1429Z" fill="url(#paint2_linear_2247_299)"/>
<path opacity="0.6" d="M83.11 60.388H80.548V64H79.176V53.878H83.11C85.098 53.878 86.372 55.18 86.372 57.126C86.372 59.016 85.084 60.388 83.11 60.388ZM82.872 55.11H80.548V59.156H82.816C84.174 59.156 84.93 58.358 84.93 57.112C84.93 55.838 84.16 55.11 82.872 55.11ZM91.622 57.098V58.302H91.034C89.788 58.302 89.018 59.058 89.018 60.374V64H87.702V57.168H88.934L89.018 58.204C89.298 57.49 89.984 57.014 90.922 57.014C91.16 57.014 91.356 57.042 91.622 57.098ZM93.5003 55.53C93.0243 55.53 92.6323 55.138 92.6323 54.662C92.6323 54.172 93.0243 53.794 93.5003 53.794C93.9763 53.794 94.3683 54.172 94.3683 54.662C94.3683 55.138 93.9763 55.53 93.5003 55.53ZM92.8563 64V57.154H94.1723V64H92.8563ZM95.6349 60.584C95.6349 58.442 96.9929 56.958 98.9949 56.958C100.717 56.958 101.921 57.938 102.159 59.464H100.843C100.619 58.596 99.9189 58.134 99.0369 58.134C97.7909 58.134 96.9369 59.086 96.9369 60.57C96.9369 62.04 97.7349 62.992 98.9809 62.992C99.9189 62.992 100.619 62.502 100.857 61.69H102.173C101.907 63.174 100.633 64.168 98.9809 64.168C96.9649 64.168 95.6349 62.74 95.6349 60.584ZM106.515 64.168C104.499 64.168 103.113 62.712 103.113 60.584C103.113 58.442 104.471 56.958 106.459 56.958C108.405 56.958 109.679 58.302 109.679 60.332V60.822L104.387 60.836C104.485 62.278 105.241 63.076 106.543 63.076C107.565 63.076 108.237 62.656 108.461 61.872H109.693C109.357 63.342 108.209 64.168 106.515 64.168ZM106.459 58.064C105.311 58.064 104.583 58.75 104.415 59.954H108.363C108.363 58.82 107.621 58.064 106.459 58.064ZM114.529 60.584C114.529 58.442 115.887 56.958 117.889 56.958C119.611 56.958 120.815 57.938 121.053 59.464H119.737C119.513 58.596 118.813 58.134 117.931 58.134C116.685 58.134 115.831 59.086 115.831 60.57C115.831 62.04 116.629 62.992 117.875 62.992C118.813 62.992 119.513 62.502 119.751 61.69H121.067C120.801 63.174 119.527 64.168 117.875 64.168C115.859 64.168 114.529 62.74 114.529 60.584ZM123.772 63.986H122.456V53.696H123.772V58.204C124.206 57.462 125.032 56.958 126.096 56.958C127.846 56.958 128.686 58.064 128.686 59.814V64H127.37V60.108C127.37 58.722 126.712 58.162 125.732 58.162C124.458 58.162 123.772 59.086 123.772 60.262V63.986ZM132.511 64.168C131.041 64.168 130.173 63.342 130.173 62.096C130.173 60.836 131.111 60.052 132.721 59.926L134.877 59.758V59.562C134.877 58.414 134.191 58.008 133.267 58.008C132.161 58.008 131.531 58.498 131.531 59.324H130.383C130.383 57.896 131.559 56.958 133.323 56.958C135.017 56.958 136.165 57.854 136.165 59.702V64H135.045L134.905 62.894C134.555 63.678 133.617 64.168 132.511 64.168ZM132.889 63.146C134.135 63.146 134.891 62.334 134.891 61.046V60.682L133.141 60.822C131.979 60.934 131.503 61.382 131.503 62.054C131.503 62.782 132.035 63.146 132.889 63.146ZM141.907 57.098V58.302H141.319C140.073 58.302 139.303 59.058 139.303 60.374V64H137.987V57.168H139.219L139.303 58.204C139.583 57.49 140.269 57.014 141.207 57.014C141.445 57.014 141.641 57.042 141.907 57.098ZM145.347 64H144.031V58.26H142.687V57.154H144.031V55.012H145.347V57.154H146.691V58.26H145.347V64Z" fill="#B7BAC7"/>
<path opacity="0.6" d="M334.899 64V53.878H338.763C340.737 53.878 341.941 54.886 341.941 56.552C341.941 57.714 341.437 58.498 340.429 58.918C341.549 59.282 342.123 60.094 342.123 61.298C342.123 62.978 340.905 64 338.903 64H334.899ZM338.679 55.096H336.271V58.344H338.763C339.897 58.344 340.541 57.728 340.541 56.678C340.541 55.67 339.869 55.096 338.679 55.096ZM338.875 59.534H336.271V62.782H338.875C340.051 62.782 340.709 62.18 340.709 61.13C340.709 60.122 340.037 59.534 338.875 59.534ZM345.212 53.878V62.726H349.664V64H343.84V53.878H345.212ZM352.526 53.878V59.618L357.034 53.878H358.672L355.284 58.176L358.728 64H357.132L354.374 59.338L352.526 61.676V64H351.154V53.878H352.526ZM367.913 60.388H365.351V64H363.979V53.878H367.913C369.901 53.878 371.175 55.18 371.175 57.126C371.175 59.016 369.887 60.388 367.913 60.388ZM367.675 55.11H365.351V59.156H367.619C368.977 59.156 369.733 58.358 369.733 57.112C369.733 55.838 368.963 55.11 367.675 55.11ZM376.425 57.098V58.302H375.837C374.591 58.302 373.821 59.058 373.821 60.374V64H372.505V57.168H373.737L373.821 58.204C374.101 57.49 374.787 57.014 375.725 57.014C375.963 57.014 376.159 57.042 376.425 57.098ZM378.303 55.53C377.827 55.53 377.435 55.138 377.435 54.662C377.435 54.172 377.827 53.794 378.303 53.794C378.779 53.794 379.171 54.172 379.171 54.662C379.171 55.138 378.779 55.53 378.303 55.53ZM377.659 64V57.154H378.975V64H377.659ZM380.437 60.584C380.437 58.442 381.795 56.958 383.797 56.958C385.519 56.958 386.723 57.938 386.961 59.464H385.645C385.421 58.596 384.721 58.134 383.839 58.134C382.593 58.134 381.739 59.086 381.739 60.57C381.739 62.04 382.537 62.992 383.783 62.992C384.721 62.992 385.421 62.502 385.659 61.69H386.975C386.709 63.174 385.435 64.168 383.783 64.168C381.767 64.168 380.437 62.74 380.437 60.584ZM391.318 64.168C389.302 64.168 387.916 62.712 387.916 60.584C387.916 58.442 389.274 56.958 391.262 56.958C393.208 56.958 394.482 58.302 394.482 60.332V60.822L389.19 60.836C389.288 62.278 390.044 63.076 391.346 63.076C392.368 63.076 393.04 62.656 393.264 61.872H394.496C394.16 63.342 393.012 64.168 391.318 64.168ZM391.262 58.064C390.114 58.064 389.386 58.75 389.218 59.954H393.166C393.166 58.82 392.424 58.064 391.262 58.064Z" fill="#B7BAC7"/>
<path d="M329.947 44.71V43.216C327.445 43.036 325.843 41.578 325.789 39.382H328.093C328.111 40.408 328.777 41.056 329.947 41.2V37.366L329.371 37.24C327.103 36.754 325.969 35.494 325.969 33.514C325.969 31.408 327.553 29.896 329.947 29.644V28.114H331.333V29.644C333.601 29.878 335.005 31.3 335.077 33.46H332.845C332.809 32.488 332.269 31.858 331.333 31.66V35.53L331.945 35.674C334.249 36.178 335.293 37.294 335.293 39.202C335.293 41.398 333.745 42.91 331.333 43.18V44.71H329.947ZM329.875 35.206L329.947 35.224V31.642C328.867 31.822 328.219 32.47 328.219 33.442C328.219 34.396 328.723 34.954 329.875 35.206ZM331.459 37.69L331.333 37.654V41.164C332.413 40.948 333.061 40.318 333.061 39.4C333.061 38.482 332.539 37.924 331.459 37.69ZM338.566 33.712L341.41 29.842H344.038L340.888 34.036C341.212 33.946 341.554 33.892 341.878 33.892C344.596 33.892 346.432 35.8 346.432 38.464C346.432 41.272 344.344 43.234 341.536 43.234C338.692 43.234 336.568 41.146 336.568 38.446C336.568 36.862 337.09 35.71 338.566 33.712ZM338.926 38.464C338.926 40.066 339.988 41.182 341.536 41.182C343.03 41.182 344.11 40.066 344.11 38.464C344.11 36.88 343.048 35.782 341.536 35.782C339.97 35.782 338.926 36.88 338.926 38.464ZM356.737 42.982L347.611 43V41.272L351.913 37.636C353.695 36.124 354.289 35.26 354.289 34C354.289 32.506 353.479 31.66 352.093 31.66C350.653 31.66 349.753 32.668 349.735 34.36H347.449C347.467 31.48 349.303 29.608 352.093 29.608C354.901 29.608 356.647 31.21 356.647 33.874C356.647 35.71 355.639 37.096 353.641 38.806L351.265 40.84H356.737V42.982ZM362.168 36.484H360.566V34.99L363.95 31.876H358.478V29.842H366.83V31.678L363.626 34.63C365.642 35.026 367.208 36.502 367.208 38.824C367.208 41.524 365.102 43.234 362.438 43.234C359.864 43.234 357.866 41.65 357.866 38.806H360.134C360.134 40.318 361.07 41.182 362.474 41.182C363.914 41.182 364.868 40.246 364.868 38.788C364.868 37.456 364.004 36.484 362.168 36.484ZM370.206 43.216C369.414 43.216 368.748 42.568 368.748 41.794C368.748 41.002 369.414 40.354 370.206 40.354C370.998 40.354 371.664 41.002 371.664 41.794C371.664 42.568 370.998 43.216 370.206 43.216ZM383.638 40.498H382.036V43H379.858V40.498H373.18V38.482L379.138 29.842H382.036V38.482H383.638V40.498ZM375.628 38.482H379.858V32.326L375.628 38.482ZM389.517 43.216C386.763 43.216 384.945 41.452 384.945 38.788H387.231C387.231 40.282 388.113 41.164 389.571 41.164C391.119 41.164 392.109 40.156 392.109 38.554C392.109 37.024 391.191 35.98 389.607 35.98C388.599 35.98 387.681 36.484 387.213 37.168L385.179 36.736L386.799 29.842H393.657V31.966H388.455L387.753 34.702C388.383 34.288 389.175 34.054 390.075 34.054C392.703 34.054 394.449 35.836 394.449 38.428C394.449 41.272 392.451 43.216 389.517 43.216Z" fill="white"/>
<defs>
<filter id="filter0_b_2247_299" x="-24" y="-24" width="467" height="362" filterUnits="userSpaceOnUse" color-interpolation-filters="sRGB">
<feFlood flood-opacity="0" result="BackgroundImageFix"/>
<feGaussianBlur in="BackgroundImageFix" stdDeviation="12"/>
<feComposite in2="SourceAlpha" operator="in" result="effect1_backgroundBlur_2247_299"/>
<feBlend mode="normal" in="SourceGraphic" in2="effect1_backgroundBlur_2247_299" result="shape"/>
</filter>
<linearGradient id="paint0_linear_2247_299" x1="419" y1="-1.16856e-05" x2="328.473" y2="345.2" gradientUnits="userSpaceOnUse">
<stop stop-color="#DF9AFF" stop-opacity="0.3"/>
<stop offset="1" stop-color="#DF9AFF" stop-opacity="0.1"/>
</linearGradient>
<linearGradient id="paint1_linear_2247_299" x1="224.5" y1="116" x2="224.5" y2="251" gradientUnits="userSpaceOnUse">
<stop stop-color="white" stop-opacity="0"/>
<stop offset="0.541667" stop-color="white"/>
<stop offset="1" stop-color="white" stop-opacity="0"/>
</linearGradient>
<linearGradient id="paint2_linear_2247_299" x1="66" y1="26" x2="26" y2="66" gradientUnits="userSpaceOnUse">
<stop stop-color="#6825F5"/>
<stop offset="1" stop-color="#A4ABEC"/>
</linearGradient>
</defs>
</svg>
